<svg width="20" height="20" viewBox="0 0 20 20" fill="none" xmlns="http://www.w3.org/2000/svg">
<path id="magnifier_icon-icons 1 (Traced)" fill-rule="evenodd" clip-rule="evenodd" d="M7.04142 0.0255788C6.22908 0.121853 5.60304 0.266401 4.96695 0.504682C2.65277 1.3715 0.824537 3.40881 0.211008 5.80453C0.0269106 6.52348 7.84996e-05 6.76852 4.32894e-08 7.73189C-3.91849e-05 8.69807 0.0265575 8.97075 0.18194 9.59608C0.938142 12.6399 3.47915 14.9276 6.60748 15.3812C7.39745 15.4957 8.69798 15.4517 9.47356 15.2841C9.70172 15.2349 9.72204 15.2231 9.83776 15.0729C9.90221 14.9893 9.92469 14.9069 9.92469 14.7539C9.92469 14.5723 9.91049 14.5358 9.80587 14.448C9.63856 14.3078 9.45269 14.2833 9.12369 14.3583C8.17295 14.5751 7.04444 14.5428 5.96574 14.268C3.51583 13.6439 1.53312 11.504 1.07552 8.99021C0.664368 6.73158 1.41794 4.42816 3.08102 2.85982C4.78611 1.25189 7.17295 0.641999 9.45395 1.23145C10.0805 1.39331 10.7364 1.67471 11.3136 2.02916C12.3884 2.68912 13.334 3.75424 13.8674 4.9055C14.3087 5.85808 14.4898 6.68084 14.4912 7.73939C14.4919 8.23999 14.4732 8.44411 14.3836 8.91434C14.2679 9.52197 14.2723 9.59264 14.4359 9.76459C14.5382 9.87204 14.6735 9.92833 14.8294 9.92833C14.9735 9.92833 15.2013 9.73425 15.2562 9.56481C15.4342 9.01554 15.5071 7.61228 15.3997 6.80221C14.9658 3.52991 12.5314 0.888489 9.29704 0.180407C8.59587 0.0269078 7.60458 -0.0411447 7.04142 0.0255788ZM7.31601 2.01864C5.26787 2.17605 3.47413 3.35585 2.5605 5.14648C2.10863 6.03202 1.92151 6.80092 1.92281 7.76644C1.92579 9.92481 3.14045 11.8825 5.09088 12.8724C7.19064 13.938 9.65503 13.6333 11.4778 12.0826C13.6297 10.252 14.0759 7.00188 12.5018 4.62403C11.5186 3.13891 9.95227 2.20037 8.17904 2.03401C7.76176 1.99484 7.65126 1.99289 7.31601 2.01864ZM8.66939 3.10752C9.90719 3.38345 10.9205 4.06506 11.6281 5.09781C12.1675 5.88517 12.4353 6.77086 12.4353 7.76769C12.4353 8.76483 12.1421 9.6716 11.5536 10.4951C10.8453 11.4861 9.81006 12.1572 8.5896 12.4166C8.13431 12.5133 7.24423 12.5134 6.78643 12.4168C4.86045 12.01 3.4163 10.5793 3.01202 8.67751C2.90073 8.15396 2.90198 7.35371 3.01496 6.81691C3.40697 4.95452 4.9045 3.46162 6.73206 3.11131C6.9022 3.07872 7.07672 3.0435 7.11987 3.03314C7.29213 2.99163 8.38494 3.04412 8.66939 3.10752ZM13.4168 11.4573C13.3633 11.4786 13.2882 11.5242 13.2499 11.5587C13.1592 11.6405 13.0931 11.8896 13.1254 12.0279C13.143 12.1035 14.03 13.015 16.0273 15.0098C17.6231 16.6036 18.9222 17.9317 18.9451 17.9928C19.0028 18.1465 18.9966 18.4284 18.9322 18.5778C18.8662 18.7311 18.6531 18.9381 18.5033 18.9944C18.3472 19.053 18.1451 19.0459 17.975 18.9757C17.8733 18.9337 16.9687 18.0599 14.9851 16.0873C13.4209 14.5318 12.1025 13.2397 12.0554 13.2159C11.8148 13.0945 11.4724 13.2383 11.3869 13.4966C11.283 13.8106 11.1617 13.6729 14.2738 16.7738C17.0496 19.5396 17.1738 19.6574 17.4566 19.7945C18.0227 20.069 18.5509 20.0685 19.1034 19.7931C19.4082 19.6411 19.6064 19.4565 19.7715 19.1705C20.0727 18.649 20.0763 18.014 19.7812 17.4557C19.703 17.3078 18.9483 16.5295 16.8132 14.395C15.2385 12.8207 13.8934 11.5059 13.8242 11.4732C13.6816 11.4058 13.5585 11.401 13.4168 11.4573Z" fill="white"/>
</svg>
