<svg width="30" height="30" viewBox="0 0 30 30" fill="none" xmlns="http://www.w3.org/2000/svg">
<path id="Vector" d="M29.9978 24.0806V24.6341C29.9113 25.0794 29.7077 25.4604 29.3653 25.762C28.9111 26.1625 28.383 26.312 27.7817 26.242C26.9164 26.1412 26.1155 25.8914 25.4643 25.2814C25.3999 25.2211 25.3551 25.2076 25.2872 25.2693C25.0697 25.4657 24.8461 25.6546 24.6629 25.8866C24.3406 26.2946 24.3188 26.5996 24.5672 27.0553C24.8761 27.6223 25.0179 28.2249 24.927 28.8727C24.8282 29.5769 24.3823 29.9779 23.6723 29.9849C23.2382 29.9892 22.8044 29.9853 22.3703 29.9562C21.6394 29.9067 20.9068 29.8789 20.1755 29.8393C19.0857 29.7798 17.9964 29.719 16.904 29.7772C15.5493 29.8497 14.1941 29.9288 12.8385 29.9727C11.8405 30.0048 10.8404 30.0209 9.8424 29.9497C9.57311 29.9306 9.3012 29.8941 9.05149 29.7763C8.8405 29.6768 8.73696 29.5174 8.73609 29.2741C8.73435 28.7484 8.95056 28.3444 9.37299 28.0411C9.87807 27.6788 10.4619 27.5046 11.054 27.3634C12.4918 27.021 13.9609 26.9367 15.4301 26.875C16.0265 26.8498 16.6234 26.8185 17.2216 26.8381C16.1814 26.6391 15.1564 26.3902 14.1845 25.9583C13.3519 25.5882 12.5888 25.1207 12.0024 24.4065C11.1031 23.3108 10.9343 21.692 11.8175 20.4616C12.5427 19.451 13.5642 18.9779 14.7792 18.8989C15.6972 18.8393 16.5686 19.0522 17.4008 19.4337C17.4874 19.4732 17.5744 19.5123 17.6979 19.5679C17.4682 19.1448 17.1868 18.8172 16.8487 18.5426C15.7837 17.6759 14.5591 17.3261 13.2005 17.4847C12.1177 17.6111 11.2302 18.1047 10.6024 19.0118C10.0556 19.8021 9.86197 20.7018 9.835 21.6446C9.81673 22.2859 9.86937 22.9232 9.99292 23.5532C10.019 23.6857 9.99466 23.7869 9.89982 23.8916C9.53482 24.2952 9.22812 24.7432 8.94143 25.2045C8.43373 26.0205 7.99086 26.8729 7.51797 27.7083C7.15994 28.3413 6.80407 28.9769 6.29725 29.5087C6.07451 29.7424 5.82741 29.9757 5.48633 29.9792C4.37872 29.9914 3.27067 30.0144 2.16393 29.9479C1.95902 29.9358 1.75325 29.9049 1.55531 29.8432C1.32865 29.7724 1.2486 29.6612 1.24208 29.4283C1.23773 29.2702 1.25208 29.1133 1.27949 28.9587C1.39521 28.31 1.7241 27.8278 2.35796 27.5797C2.74688 27.4277 3.15321 27.3699 3.56389 27.3247C3.92497 27.2852 4.28867 27.2673 4.64279 27.1752C4.91208 27.1053 5.05651 26.9445 5.08914 26.6661C5.14918 26.1543 5.18094 25.6403 5.22052 25.1268C5.29013 24.2283 5.41281 23.3399 5.65295 22.4683C5.85786 21.7246 5.88048 20.9734 5.71343 20.2161C5.58422 19.6313 5.35017 19.0805 5.17223 18.5118C5.02737 18.0491 4.92252 17.5768 4.93949 17.0902C4.96298 16.4138 5.1557 15.7782 5.46023 15.1751C5.53941 15.0187 5.53767 15.0144 5.36496 15.0153C4.65889 15.0192 3.95456 14.994 3.2524 14.914C2.54154 14.8332 1.84548 14.6998 1.19727 14.3844C0.539922 14.0647 0.111842 13.5737 0.0261393 12.8191C-0.0491227 12.1587 0.0426709 11.5183 0.243225 10.8944C0.73047 9.37646 1.58576 8.08395 2.71034 6.96262C4.35566 5.32212 6.31204 4.69563 8.60253 5.17006C8.70694 5.19178 8.76263 5.16093 8.81527 5.07535C9.15634 4.52011 9.5979 4.0509 10.0764 3.6134C11.3781 2.42212 12.8137 1.44634 14.4895 0.847222C15.6493 0.432751 16.8309 0.11082 18.0642 0.0256664C18.5332 -0.00691778 19.0091 -0.0321162 19.472 0.105172C19.8666 0.222475 20.0715 0.567867 19.9858 0.970608C19.9136 1.30992 19.6804 1.52541 19.4098 1.70701C19.0017 1.98115 18.5515 2.17144 18.0925 2.34218C17.9816 2.38346 17.8702 2.42212 17.7588 2.46209C18.1029 2.4395 18.4388 2.46123 18.7738 2.4886C19.3328 2.53421 19.8862 2.61068 20.3982 2.86049C20.7306 3.02298 21.029 3.22674 21.1926 3.57604C21.3623 3.93881 21.2935 4.18037 20.9638 4.40281C20.7223 4.56573 20.453 4.66739 20.1777 4.75254C19.3376 5.01278 18.4788 5.20568 17.6322 5.44289C16.7321 5.69488 15.8442 5.97901 15.0129 6.41738C14.1058 6.89571 13.2201 7.41619 12.2825 7.83544C12.1994 7.87237 12.1999 7.9219 12.2312 7.99098C12.4365 8.44846 12.5109 8.93375 12.5401 9.42946C12.5636 9.83046 12.7184 10.1754 13.0004 10.4604C13.3358 10.7989 13.7604 10.9783 14.2102 11.0995C15.0994 11.3389 16.0152 11.4128 16.9275 11.4996C17.7593 11.5787 18.5928 11.6408 19.4189 11.7686C21.0895 12.0275 22.6509 12.5558 24.016 13.5907C25.3194 14.5786 26.25 15.8407 26.8333 17.36C27.1992 18.3123 27.4067 19.3012 27.4763 20.3204C27.5237 21.0142 27.5529 21.7054 27.3815 22.3875C27.3502 22.5114 27.3915 22.5257 27.4994 22.5083C27.7578 22.4675 28.0193 22.4458 28.2777 22.4901C29.1943 22.6469 29.7855 23.1609 30 24.0793L29.9978 24.0806ZM3.66612 10.0012C3.6596 10.7528 4.24168 11.3467 4.99474 11.3558C5.73953 11.365 6.35207 10.7689 6.35729 10.0299C6.36207 9.28305 5.76824 8.6709 5.03172 8.66395C4.27562 8.65656 3.67265 9.24742 3.66612 10.0012Z" fill="white"/>
</svg>
