<svg width="38" height="25" viewBox="0 0 38 25" fill="none" xmlns="http://www.w3.org/2000/svg">
<g id="Group 113">
<path id="Vector" d="M37.999 16.952C37.8454 17.2424 37.68 17.5264 37.3759 17.6599C36.1186 18.2162 34.9456 18.9601 33.7043 19.5514C33.196 19.793 32.6838 20.0262 32.1479 20.1873C31.9299 20.253 31.8457 20.3748 31.8586 20.6111C31.8893 21.1781 31.924 21.745 31.9299 22.313C31.9468 23.858 30.9194 24.9792 29.4828 24.994C28.8894 25.0004 28.297 25.0025 27.7035 24.9919C26.1976 24.9644 25.0999 23.4638 25.4298 21.8902C25.4754 21.6708 25.5329 21.4547 25.5893 21.2385C25.7023 20.8061 25.6607 20.7341 25.2267 20.716C24.672 20.6927 24.1172 20.6768 23.5624 20.6355C21.2332 20.4617 18.9625 20.0018 16.7671 19.1371C16.3668 18.9792 16.3589 18.9834 16.3678 19.4328C16.3866 20.3833 16.4263 21.3338 16.4342 22.2855C16.4471 23.8951 15.4395 24.9856 13.9455 24.9951C13.2788 24.9993 12.611 25.0057 11.9443 24.9898C10.5493 24.9559 9.46253 23.5391 9.68743 22.0661C9.85287 20.9852 10.0411 19.9075 10.1749 18.8213C10.4255 16.7846 9.77956 15.0933 8.31628 13.7888C6.01783 11.7394 3.58563 9.8743 1.11578 8.07282C0.183522 7.39037 -0.163227 6.65071 0.0705808 5.48716C0.295473 4.36812 0.551076 3.27558 1.12668 2.29536C2.15999 0.538384 3.89374 -0.278641 5.80681 0.0848345C7.47021 0.400624 8.93052 1.08095 9.88062 2.67685C10.2135 3.23637 10.4542 3.84463 10.6771 4.46244C10.7594 4.69027 10.696 4.86936 10.6038 5.06328C10.0639 6.19822 9.62798 7.37342 9.3704 8.62068C9.2099 9.39956 9.34563 9.77257 9.95393 10.2081C13.256 12.5733 16.7978 14.3674 20.6724 15.3773C23.1641 16.0258 25.6914 16.2515 28.2445 16.1233C30.9342 15.9877 33.6072 15.6666 36.2524 15.1177C36.8785 14.9873 37.5789 15.408 38 16.1594V16.9531L37.999 16.952ZM6.99665 5.23601C6.99665 4.57582 6.52903 4.05021 5.94253 4.05339C5.40359 4.05551 4.88148 4.59702 4.87752 5.15972C4.87256 5.80401 5.35306 6.32432 5.95145 6.3222C6.53993 6.32008 6.99665 5.8464 6.99665 5.23707V5.23601Z" fill="white"/>
<path id="Vector_2" d="M11.6273 8.47653C11.8255 7.68494 12.1167 6.98448 12.4764 6.32217C13.901 3.70048 15.9884 2.01345 18.7476 1.29179C19.1627 1.1837 19.1924 1.21232 19.1161 1.64573C18.9457 2.61747 18.7644 3.58815 18.595 4.55989C18.5643 4.73792 18.4801 4.87568 18.384 5.0145C17.2031 6.72379 16.0172 8.4299 14.8471 10.1477C14.6648 10.4158 14.5202 10.4645 14.2438 10.3003C13.4334 9.82022 12.6309 9.32852 11.8522 8.79338C11.7314 8.71072 11.5758 8.64078 11.6273 8.47547V8.47653Z" fill="white"/>
<path id="Vector_3" d="M22.5005 0.904989C24.3126 0.921944 26.0096 1.39987 27.5938 2.34406C27.8732 2.51043 27.9633 2.69058 27.889 3.04133C27.7048 3.91558 27.5611 4.79937 27.4135 5.68104C27.3709 5.93748 27.2639 6.06677 27.0152 6.11233C26.0919 6.28082 25.1725 6.46945 24.2511 6.6496C24.0282 6.69305 23.8241 6.68139 23.6161 6.54045C22.77 5.97139 21.917 5.41399 21.0591 4.86719C20.8342 4.72413 20.7658 4.57577 20.8223 4.28966C21.0204 3.29672 21.1958 2.29955 21.3602 1.30026C21.4078 1.01202 21.5187 0.881675 21.7971 0.90075C22.0309 0.916645 22.2657 0.903929 22.5005 0.903929V0.904989Z" fill="white"/>
<path id="Vector_4" d="M22.5075 8.79964C22.3619 10.2059 22.2133 11.6227 22.0686 13.0395C22.0468 13.2567 21.9557 13.3404 21.7467 13.2906C20.0674 12.8879 18.4308 12.3433 16.8476 11.6184C16.6346 11.5209 16.6356 11.4076 16.7594 11.2295C17.7303 9.82755 18.6992 8.42451 19.6632 7.01617C19.8059 6.80741 19.9337 6.80741 20.1268 6.9367C20.8283 7.4072 21.5376 7.86393 22.245 8.32278C22.4114 8.43087 22.5581 8.54531 22.5085 8.79964H22.5075Z" fill="white"/>
<path id="Vector_5" d="M31.6308 13.5514C31.3444 13.5917 31.3137 13.349 31.2543 13.154C30.7916 11.6482 30.3973 10.1138 29.8534 8.64289C29.4135 7.4518 29.3541 6.30415 29.689 5.10139C29.7345 4.93714 29.7484 4.76335 29.791 4.5991C29.8158 4.50372 29.788 4.36172 29.903 4.32569C30.0327 4.28437 30.0971 4.41895 30.1695 4.5016C30.9264 5.35996 31.5951 6.29249 32.1608 7.30556C33.104 8.99259 33.8034 10.793 34.3205 12.6782C34.4147 13.0205 34.3443 13.1625 34.0144 13.2059C33.2189 13.3109 32.4253 13.4348 31.6308 13.5514Z" fill="white"/>
<path id="Vector_6" d="M26.8021 13.7951C26.0492 13.8841 25.2992 13.8099 24.5492 13.7506C24.2322 13.7262 24.1539 13.5715 24.1886 13.2652C24.3045 12.231 24.4105 11.1956 24.5215 10.1603C24.5562 9.83287 24.6007 9.50649 24.6265 9.17798C24.6424 8.9724 24.7355 8.87385 24.9207 8.83888C25.6985 8.69264 26.4752 8.54323 27.2499 8.38745C27.4461 8.34824 27.5541 8.42242 27.6135 8.6174C28.1079 10.2356 28.6032 11.8537 29.0996 13.4719C29.1828 13.7442 29.0431 13.7951 28.836 13.794C28.1574 13.793 27.4798 13.794 26.8011 13.794L26.8021 13.7951Z" fill="white"/>
</g>
</svg>
