<svg width="16" height="15" viewBox="0 0 16 15" fill="none" xmlns="http://www.w3.org/2000/svg">
<g id="Layer_1" clip-path="url(#clip0_61_68)">
<path id="Vector" d="M7.86661 14.9971C3.68169 15.1112 0.126372 11.8211 0.00304317 7.7216C-0.120285 3.60289 3.24218 0.118068 7.45106 0.00320049C11.691 -0.112435 15.2479 3.17877 15.3543 7.31592C15.4603 11.4335 12.0987 14.8822 7.86661 14.9974V14.9971ZM13.9066 7.47074C13.8787 4.0954 11.0798 1.39698 7.64391 1.41234C4.2182 1.42771 1.37576 4.20105 1.44803 7.63324C1.51716 10.9206 4.32622 13.6586 7.82065 13.5852C11.191 13.5145 13.9321 10.7908 13.9062 7.47074H13.9066Z" fill="white"/>
<g id="Group">
<path id="Vector_2" d="M6.24072 7.15175C6.27097 7.02574 6.29453 6.92009 6.32281 6.8156C6.32713 6.79985 6.3507 6.78409 6.36876 6.77718C6.70104 6.6481 7.03254 6.51172 7.39192 6.47714C7.70024 6.44756 8.00149 6.4756 8.2619 6.66692C8.49795 6.84057 8.57964 7.07914 8.57454 7.36035C8.56629 7.81214 8.39269 8.22666 8.28389 8.65578C8.20259 8.97656 8.12836 9.29927 8.05177 9.62159C8.0443 9.65386 8.04234 9.68805 8.04234 9.72109C8.04155 9.95966 8.13346 10.0668 8.37305 10.1041C8.5329 10.1291 8.68883 10.1053 8.84162 10.0565C8.897 10.0388 8.95238 10.0211 9.02897 9.99654C8.99715 10.1241 8.97084 10.2347 8.94099 10.3446C8.93745 10.3577 8.91467 10.37 8.89857 10.3753C8.62324 10.4687 8.35223 10.5805 8.07023 10.6477C7.78115 10.7165 7.48343 10.7034 7.19946 10.5924C6.85501 10.4575 6.66216 10.1625 6.67512 9.80023C6.6873 9.46254 6.78156 9.14176 6.87308 8.81944C6.98501 8.42451 7.08949 8.02766 7.18807 7.62927C7.21085 7.53707 7.2085 7.43527 7.19907 7.33961C7.181 7.15444 7.09067 7.07261 6.90136 7.04956C6.71243 7.02651 6.5298 7.05532 6.35148 7.11717C6.32281 7.12716 6.29335 7.13523 6.24072 7.15098V7.15175Z" fill="white"/>
<path id="Vector_3" d="M8.34212 5.79333C7.81189 5.7941 7.44543 5.41454 7.50121 4.95929C7.54677 4.58741 7.92107 4.29929 8.3323 4.30966C8.71132 4.31926 9.08641 4.6024 9.1143 5.00271C9.13079 5.23551 9.04517 5.43106 8.86725 5.58626C8.70778 5.72533 8.52122 5.79756 8.34173 5.79295L8.34212 5.79333Z" fill="white"/>
</g>
</g>
<defs>
<clipPath id="clip0_61_68">
<rect width="15.3571" height="15" fill="white"/>
</clipPath>
</defs>
</svg>
