<svg width="15" height="15" viewBox="0 0 15 15" xmlns="http://www.w3.org/2000/svg">
<g id="Layer_1" clip-path="url(#clip0_61_52)">
<path id="Vector" d="M7.51309 9.51074e-06C11.648 -0.00654071 15.0044 3.37119 15 7.53494C14.9935 11.6528 11.6218 15 7.47165 15.0022C3.36072 15.0044 -0.00217981 11.6157 1.06013e-06 7.47599C0.00218193 3.34717 3.36072 0.00655973 7.51309 9.51074e-06ZM1.16895 6.91267C1.27363 6.91922 1.35432 6.92577 1.43501 6.92796C1.95188 6.93451 2.18959 7.10918 2.18741 7.48691C2.18741 7.84717 1.94533 8.02184 1.45028 8.03058C1.35432 8.03058 1.25618 8.04368 1.13405 8.05241C1.32597 9.80569 2.05438 11.2336 3.35854 12.3537C4.37918 13.2315 5.56339 13.7358 6.93734 13.8559C6.97005 13.3908 6.82611 12.8144 7.48692 12.8079C8.17171 12.8013 8.01032 13.3996 8.06048 13.8122C10.4856 14.1594 14.2869 10.3341 13.7983 8.02839C13.6522 8.02839 13.4996 8.03494 13.3491 8.02839C13.0263 8.01093 12.8039 7.77949 12.8082 7.47381C12.8126 7.17032 13.0372 6.94542 13.36 6.93014C13.517 6.92359 13.6762 6.93014 13.8332 6.93014C13.8354 4.14411 10.4812 0.829704 8.0474 1.18342C8.0474 1.32097 8.05394 1.46289 8.0474 1.60481C8.02995 1.94761 7.7966 2.1725 7.47819 2.16158C7.17505 2.15066 6.96133 1.92577 6.95042 1.59608C6.94606 1.44979 6.95042 1.30132 6.95042 1.15066C3.79471 1.36027 1.31506 4.08735 1.16895 6.91267Z" />
<path id="Vector_2" d="M4.39011 5.39299C4.45554 5.43011 4.56676 5.48033 4.66272 5.55238C5.50017 6.1812 6.34199 6.80565 7.16854 7.44976C7.3888 7.62225 7.52184 7.59823 7.70721 7.40173C8.6777 6.36679 9.66127 5.34496 10.6405 4.31876C10.719 4.23797 10.7975 4.155 10.8782 4.0764C11.0636 3.89736 11.262 3.88862 11.4561 4.05238C11.6371 4.20522 11.6415 4.45413 11.4583 4.655C11.0897 5.05675 10.7081 5.44539 10.333 5.84059C9.65909 6.54801 8.98084 7.25107 8.31349 7.96504C8.21535 8.06985 8.15211 8.21832 8.10631 8.35806C8.01689 8.63098 7.84897 8.80129 7.56109 8.82967C7.2754 8.85806 7.07694 8.72924 6.93082 8.48251C6.83705 8.32312 6.71928 8.15937 6.57534 8.04801C5.77932 7.43011 4.97459 6.82749 4.16766 6.22269C4.00192 6.09823 3.87543 5.96068 3.91686 5.73579C3.9583 5.50216 4.1175 5.41701 4.38793 5.39954L4.39011 5.39299Z" />
</g>
<defs>
<clipPath id="clip0_61_52">
<rect width="15" height="15"/>
</clipPath>
</defs>
</svg>
