<svg width="37" height="30" viewBox="0 0 37 30" fill="none" xmlns="http://www.w3.org/2000/svg">
<path id="Vector" d="M34.5257 3.1998C34.1745 3.13436 33.8123 3.10013 33.4552 3.09913C27.8436 3.09309 22.232 3.09309 16.6204 3.09611C15.3582 3.09711 14.707 3.57127 14.7201 4.45816C14.7321 5.31083 15.3582 5.73767 16.6053 5.73868C22.2169 5.73969 27.8285 5.73767 33.4401 5.74069C34.4314 5.74069 34.5227 5.8766 34.1876 6.78161C33.2013 9.4413 32.198 12.0949 31.2448 14.7667C31.0141 15.414 30.691 15.6496 29.9957 15.6456C24.2888 15.6194 18.5819 15.6305 12.874 15.6305C12.1349 15.6305 11.68 15.2704 11.5095 14.5503C10.5994 10.6654 9.70448 6.77759 8.77841 2.89678C8.33996 1.06359 7.00554 0.0347524 5.14838 0.0246854C4.23736 0.0196519 3.32233 0.072 2.41533 0.0105917C1.36385 -0.0608836 0.347479 0.216964 0.0765813 1.22466C-0.035791 1.64345 -0.0147212 2.10049 0.0765813 2.52431C0.303332 3.57227 1.30164 3.88435 2.33707 3.85616C2.91197 3.84005 3.48788 3.85314 4.06279 3.85415C5.11527 3.85516 5.10725 3.85717 5.34102 4.86185C6.58916 10.2225 7.84431 15.5811 9.09345 20.9418C9.4396 22.4287 10.2884 23.4283 11.7904 23.8229C11.8586 23.84 11.9409 23.8491 12.0051 23.8843H14.2114C13.5151 24.5286 13.0777 25.4508 13.0777 26.4766C13.0777 28.4225 14.6499 30 16.5893 30C18.5287 30 20.1009 28.4225 20.1009 26.4766C20.1009 25.4508 19.6645 24.5286 18.9672 23.8843H23.9436C23.2473 24.5286 22.8099 25.4508 22.8099 26.4766C22.8099 28.4225 24.3821 30 26.3215 30C28.2609 30 29.8332 28.4225 29.8332 26.4766C29.8332 25.4508 29.3967 24.5286 28.6994 23.8843H30.4372C31.4977 23.6689 32.1458 22.6924 31.9201 21.6001C31.7395 20.7304 30.9769 20.1284 29.9636 20.1112C28.6683 20.0901 27.373 20.1042 26.0787 20.1042C21.9059 20.1032 17.7331 20.1052 13.5613 20.0992C13.2693 20.0982 12.9482 20.1918 12.7556 19.8032C12.1877 18.6566 12.3924 18.2781 13.6235 18.2781C19.1387 18.2781 24.654 18.2781 30.1693 18.2771C31.599 18.2771 32.8211 17.8069 33.3669 16.3986C34.5749 13.2838 35.7447 10.152 36.8384 6.99503C37.4363 5.27057 36.3106 3.53301 34.5247 3.1998H34.5257Z" fill="white"/>
</svg>
