<svg width="25" height="30" viewBox="0 0 25 30" fill="none" xmlns="http://www.w3.org/2000/svg">
<path id="Vector" d="M24.3771 22.3724C23.9646 21.7589 23.5364 21.2101 23.1204 20.677C22.2062 19.5059 21.4162 18.4939 21.2344 17.3456C21.2257 17.2809 20.2871 10.5727 19.6386 8.42461C18.936 6.09124 17.1356 4.52866 14.5698 4.01829C14.5872 3.65125 14.6467 2.09916 14.4684 1.52936C14.2237 0.739338 13.514 0.190515 12.5178 0.0104871C12.4723 -0.00349569 12.4269 -0.00349569 12.3814 0.0104871C11.3834 0.194011 10.679 0.74633 10.436 1.53636C10.263 2.10615 10.3294 3.65824 10.3469 4.02529C7.78102 4.54614 5.98945 6.11571 5.2938 8.45258C4.65582 10.6042 3.74693 17.3159 3.73819 17.3806C3.55816 18.5289 2.77511 19.5444 1.86621 20.7189C1.45197 21.2555 1.02374 21.8061 0.614734 22.4213C0.002978 23.3425 -0.156078 24.2094 0.155043 24.933C0.506366 25.7492 1.41876 26.3208 2.73665 26.5445L8.90665 26.5323C8.96783 28.4567 10.5444 30 12.4846 30C14.4247 30 16.0083 28.4497 16.0625 26.5165L22.2744 26.5043C23.5905 26.2753 24.4994 25.6986 24.8473 24.8823C25.1566 24.1587 24.9941 23.2918 24.3771 22.3742V22.3724Z" fill="white"/>
</svg>
