<svg width="15" height="15" viewBox="0 0 15 15" fill="none" xmlns="http://www.w3.org/2000/svg">
<g id="Layer_1" clip-path="url(#clip0_61_58)">
<path id="Vector" d="M7.68366 14.997C3.59606 15.1111 0.123427 11.821 0.00296672 7.72154C-0.117494 3.60283 3.16678 0.118007 7.27777 0.00313945C11.4191 -0.112496 14.8932 3.17871 14.9972 7.31586C15.1008 11.4334 11.8173 14.8821 7.68366 14.9974V14.997ZM13.5831 7.47068C13.5559 4.09534 10.8221 1.39692 7.46614 1.41228C4.1201 1.42765 1.34376 4.20099 1.41435 7.63318C1.48187 10.9205 4.2256 13.6585 7.63877 13.5852C10.9307 13.5145 13.6081 10.7907 13.5828 7.47068H13.5831Z" />
<path id="Vector_2" d="M6.3326 5.58201C6.33912 6.27429 6.83209 6.77256 7.48887 6.79523C8.58759 6.83364 9.38516 7.34113 9.85357 8.33806C10.4052 9.51171 9.90421 10.9992 8.75792 11.615C8.61789 11.6903 8.46291 11.7384 8.32403 11.8152C8.27109 11.8444 8.22199 11.9151 8.20894 11.975C8.18669 12.0799 8.20357 12.1925 8.18669 12.2989C8.12991 12.65 7.83759 12.8936 7.49078 12.8878C7.14667 12.8824 6.81636 12.6258 6.81828 12.2801C6.82019 11.9474 6.68823 11.8244 6.39897 11.6865C5.4748 11.2462 4.99142 10.4787 4.92275 9.456C4.89551 9.04993 5.17135 8.7134 5.55229 8.67267C5.9716 8.62773 6.30613 8.93237 6.33068 9.38109C6.36214 9.96004 6.71009 10.3899 7.24679 10.5121C7.77812 10.6331 8.30408 10.3769 8.55306 9.87552C8.78554 9.4076 8.66009 8.82365 8.25574 8.48289C8.02019 8.28428 7.74551 8.21013 7.44168 8.19861C6.30996 8.1552 5.36623 7.44371 5.04321 6.4003C4.63158 5.07029 5.32979 3.66461 6.63759 3.20975C6.78068 3.16019 6.806 3.08451 6.79794 2.95696C6.77915 2.65884 6.85204 2.39799 7.12135 2.22588C7.58324 1.93045 8.17672 2.22319 8.19091 2.78562C8.1982 3.06722 8.2895 3.16749 8.54078 3.28197C9.5106 3.72377 10.0147 4.5094 10.0791 5.57087C10.1041 5.97963 9.79372 6.31386 9.40204 6.32769C8.9927 6.3419 8.68733 6.0434 8.66777 5.61005C8.63861 4.97194 8.17557 4.49019 7.55754 4.45523C6.97979 4.42258 6.45421 4.84133 6.34986 5.41989C6.33759 5.48866 6.3349 5.55934 6.3326 5.58239V5.58201Z" />
</g>
<defs>
<clipPath id="clip0_61_58">
<rect width="15" height="15"/>
</clipPath>
</defs>
</svg>
