<svg width="30" height="23" viewBox="0 0 30 23" fill="none" xmlns="http://www.w3.org/2000/svg">
<path id="Vector" d="M4.31978 17.4583C4.69605 17.9393 5.12387 18.369 5.57578 18.7714C6.826 19.885 8.22124 20.7379 9.76438 21.3178C9.95132 21.3884 9.96143 21.4751 9.84822 21.6299C9.5789 21.9982 9.31055 22.3676 9.0552 22.7466C8.92609 22.9384 8.78878 23.0058 8.55222 22.985C7.08424 22.8562 5.67021 22.5015 4.31063 21.9079C2.99344 21.3331 1.80103 20.5522 0.762791 19.5147C0.535391 19.2874 0.330634 19.0393 0.105642 18.8104C0.0261485 18.7293 -0.00661263 18.64 0.00109586 18.5167C0.180318 15.7454 0.557553 13.0067 1.22626 10.3166C1.77068 8.12633 2.48564 6.003 3.47666 3.98978C3.62794 3.68231 3.80476 3.38906 3.95941 3.08362C4.09623 2.8137 4.3429 2.67722 4.56645 2.51892C6.39192 1.22666 8.3783 0.361606 10.5666 0.0455168C10.687 0.0282664 10.8469 -0.0579858 10.9308 0.0647967C11.0507 0.239838 11.1452 0.443799 11.2064 0.650297C11.2415 0.769528 11.0888 0.762424 11.0132 0.781704C10.3175 0.958775 9.63671 1.18455 8.97234 1.46411C7.50146 2.0831 6.20981 3.00041 5.02752 4.09886C5.01692 4.1085 5.01499 4.12829 4.99764 4.17243C11.6616 0.488955 18.3117 0.48591 24.9848 4.15924C24.9414 4.04051 24.8542 3.98166 24.7825 3.91418C23.1458 2.36874 21.2375 1.37431 19.1119 0.821279C18.7443 0.725387 18.7409 0.716254 18.9124 0.357547C19.082 0.00289811 19.1042 -0.0123229 19.4896 0.0414579C20.7326 0.213455 21.9221 0.585861 23.0615 1.13026C23.9914 1.57421 24.8783 2.09984 25.7142 2.72136C26.0693 2.9857 26.2225 3.39261 26.4123 3.76552C27.2752 5.46317 27.927 7.25214 28.4531 9.09489C29.0231 11.0909 29.4201 13.1259 29.686 15.1884C29.8253 16.2675 29.937 17.3507 29.9987 18.439C30.0098 18.6308 29.95 18.7724 29.8238 18.9129C27.7892 21.1849 25.2556 22.4102 22.3572 22.8694C22.0088 22.9247 21.6562 22.9521 21.3059 22.9967C21.1999 23.0104 21.119 22.9825 21.054 22.8907C20.7524 22.4635 20.4512 22.0358 20.1448 21.6126C20.035 21.4614 20.0615 21.3914 20.232 21.3254C22.0108 20.64 23.6016 19.6334 24.9737 18.2493C25.1973 18.024 25.4247 17.8084 25.6448 17.4908C25.1597 17.8155 24.7367 18.1169 24.2978 18.3903C22.4502 19.5415 20.4498 20.2336 18.3333 20.5832C16.9641 20.8095 15.5872 20.8769 14.2064 20.8292C11.6279 20.7405 9.14096 20.2098 6.80577 19.0154C5.93856 18.572 5.11375 18.0489 4.31978 17.4578V17.4583ZM21.8099 12.9407C21.8171 12.3025 21.6427 11.7225 21.316 11.1908C20.5148 9.88638 18.912 9.70119 17.8732 10.7925C16.742 11.9808 16.7955 14.0848 17.985 15.2081C18.7944 15.9722 20.0345 15.9854 20.8275 15.2492C21.4904 14.6343 21.7906 13.8555 21.8099 12.9407ZM12.9432 12.8514C12.934 12.1853 12.7254 11.5262 12.2851 10.9503C11.4617 9.8742 9.98311 9.78186 9.04846 10.7509C7.96301 11.8768 7.90905 13.818 8.93042 15.0087C9.74656 15.9606 11.1119 16.0575 11.9777 15.2355C12.6319 14.614 12.9388 13.8388 12.9427 12.8514H12.9432Z" fill="white"/>
</svg>
