<svg width="13" height="8" viewBox="0 0 13 8" fill="none" xmlns="http://www.w3.org/2000/svg">
<path id="Vector" d="M6.29971 8C6.04381 7.81361 5.75418 7.66343 5.53707 7.43603C3.80679 5.62748 2.08961 3.80456 0.370406 1.9843C-0.10007 1.48636 -0.123241 0.822805 0.305929 0.354693C0.742152 -0.120876 1.41462 -0.118745 1.8725 0.364279C3.34437 1.9188 4.81574 3.47438 6.2856 5.03156C6.35008 5.09973 6.39944 5.1844 6.50019 5.32233C6.74096 5.04381 6.9349 4.80203 7.14596 4.57836C8.46621 3.17721 9.79301 1.78246 11.1112 0.37919C11.4175 0.0532686 11.7736 -0.0676206 12.1842 0.0404873C12.6194 0.154986 12.8874 0.465996 12.978 0.933043C13.044 1.27441 12.9594 1.58116 12.7499 1.84584C12.6587 1.96087 12.5549 2.06578 12.4542 2.17229C10.7934 3.92864 9.13666 5.68926 7.46582 7.4355C7.24821 7.66289 6.95908 7.81361 6.70268 7.99947H6.29971V8Z" fill="white"/>
</svg>
