<svg width="8" height="9" viewBox="0 0 8 9" fill="none" xmlns="http://www.w3.org/2000/svg">
<path id="Star 11" d="M3.04215 1.19361C3.32717 0.243319 4.67283 0.243319 4.95785 1.19361L5.13332 1.77867C5.2602 2.20169 5.64953 2.49139 6.09117 2.49139H6.81899C7.76824 2.49139 8.18339 3.69008 7.43748 4.27718L6.71455 4.84619C6.39178 5.10024 6.25719 5.52582 6.37519 5.91927L6.6183 6.72982C6.8989 7.6654 5.80949 8.40701 5.04197 7.8029L4.61849 7.46958C4.25562 7.18398 3.74438 7.18398 3.38151 7.46958L2.95803 7.8029C2.19051 8.40701 1.1011 7.6654 1.3817 6.72982L1.62481 5.91927C1.74281 5.52582 1.60822 5.10024 1.28545 4.84619L0.562523 4.27718C-0.183393 3.69008 0.231761 2.49139 1.18101 2.49139H1.90883C2.35047 2.49139 2.7398 2.20169 2.86668 1.77867L3.04215 1.19361Z" fill="#535353"/>
</svg>
