<svg width="32" height="30" viewBox="0 0 32 30" fill="none" xmlns="http://www.w3.org/2000/svg">
<path id="Vector" d="M0.000511174 16.1431V15.3039C0.124726 14.8916 0.374179 14.5691 0.668616 14.2675C4.64504 10.1928 8.61584 6.1128 12.5933 2.03911C13.128 1.49155 13.6279 0.907272 14.2796 0.484536C15.3914 -0.236633 17.0466 -0.146421 18.0649 0.712687C18.5664 1.13595 19.0029 1.62634 19.4599 2.09523C23.4174 6.15109 27.3718 10.2106 31.3304 14.2665C31.6243 14.5675 31.8727 14.8922 32 15.3028V16.142C31.9785 16.1992 31.9576 16.2564 31.9351 16.3125C31.5486 17.2802 30.5856 17.6992 29.643 17.3038C29.2938 17.1574 29.0551 16.8637 28.7908 16.6051C28.6743 16.4908 28.5828 16.3387 28.3865 16.2658C28.3865 16.41 28.3865 16.5223 28.3865 16.6345C28.385 19.0461 28.4213 21.4587 28.3691 23.8698C28.3282 25.7627 27.5196 27.3194 26.1041 28.5299C24.9023 29.5579 23.4946 30 21.9427 30C18.161 29.9995 14.3798 30 10.5982 29.999C9.94029 29.999 9.28956 29.9355 8.65417 29.7441C6.75619 29.1718 5.34637 27.9986 4.4651 26.1713C4.01987 25.2482 3.88748 24.2611 3.88799 23.2457C3.8885 21.6465 3.88799 20.0473 3.88799 18.4482C3.88799 17.7055 3.88799 16.9628 3.88594 16.2196C3.88594 16.153 3.91048 16.0634 3.83892 16.0287C3.76224 15.9915 3.72084 16.0791 3.67534 16.1242C3.4264 16.3754 3.18308 16.6324 2.93363 16.8831C2.61414 17.2031 2.24661 17.4296 1.78758 17.4501C0.934426 17.4879 0.356799 17.0625 0 16.142L0.000511174 16.1431ZM16.2477 26.5106C18.1385 26.5106 20.0293 26.5106 21.9202 26.5106C22.2105 26.5106 22.5029 26.4985 22.7805 26.4178C24.2051 26.0034 24.9816 24.9461 24.9821 23.4319C24.9836 19.9797 24.98 16.528 24.9872 13.0759C24.9877 12.8105 24.9141 12.618 24.7306 12.4302C21.8956 9.53088 19.0647 6.62679 16.2395 3.71747C16.0606 3.53285 15.9507 3.52131 15.7661 3.7117C13.013 6.54707 10.2536 9.37563 7.49279 12.2037C7.36244 12.3374 7.30416 12.4816 7.3057 12.6694C7.31132 13.2636 7.30723 13.8579 7.30723 14.4521C7.30723 17.4585 7.31439 20.4648 7.30365 23.4712C7.30007 24.4289 7.68959 25.1711 8.39194 25.7611C9.00995 26.2803 9.73429 26.5059 10.5235 26.508C12.4312 26.5143 14.3395 26.5101 16.2472 26.5101L16.2477 26.5106Z" fill="white"/>
</svg>
