<svg width="34" height="27" viewBox="0 0 34 27" fill="none" xmlns="http://www.w3.org/2000/svg">
<path id="Vector" d="M5.76322 26.9886C6.47009 26.9886 7.17739 26.9899 7.88426 26.9874C8.00349 26.9869 8.12568 26.9802 8.24152 26.9542C8.41335 26.915 8.53088 26.8066 8.55507 26.6253C8.62805 26.077 8.50458 25.6179 7.99203 25.305C7.57368 25.0498 7.51003 24.8215 7.65599 24.3619C7.79389 23.9276 8.02597 23.542 8.29879 23.1841C8.74812 22.5942 8.91105 21.916 8.97766 21.2029C9.04088 20.5267 9.09392 19.8502 9.15162 19.1736C9.15417 19.1459 9.15162 19.1164 9.16053 19.0904C9.20975 18.9369 9.24963 18.7414 9.45202 18.7573C9.66502 18.7737 9.64338 18.9802 9.63065 19.1236C9.52203 20.34 9.71805 21.5258 9.98409 22.7044C10.2684 23.9633 10.6078 25.2062 11.1254 26.3945C11.1725 26.5026 11.2383 26.6043 11.3053 26.7023C11.4458 26.9066 11.6274 27 11.8947 26.9949C12.8065 26.9777 13.7191 26.9781 14.6309 26.9912C15.0077 26.9966 15.2695 26.8553 15.4354 26.5253C15.5016 26.3937 15.5771 26.2663 15.6365 26.1317C15.9009 25.5317 15.7171 24.93 15.124 24.4431C15.048 24.3804 14.9691 24.3199 14.8864 24.2669C14.684 24.1374 14.5957 23.9473 14.5838 23.7186C14.5703 23.4524 14.5779 23.1879 14.6182 22.9226C14.6853 22.4798 14.7336 22.0337 14.7994 21.591C14.8176 21.4678 14.8584 21.345 14.9084 21.2302C14.9848 21.0548 15.1087 21.0103 15.2648 21.1246C15.9666 21.6397 16.7872 21.7221 17.6163 21.7764C17.9502 21.7983 18.0792 21.913 18.0783 22.2427C18.0783 22.41 18.0558 22.5778 18.0321 22.7439C17.9875 23.0563 17.9498 23.3696 17.9638 23.6854C17.9901 24.2728 17.7648 24.7479 17.3239 25.1326C17.186 25.2529 17.0566 25.3824 16.9285 25.5128C16.7057 25.7398 16.6374 26.0022 16.7583 26.3033C16.7821 26.3617 16.8025 26.4218 16.8309 26.4782C16.9998 26.8099 17.2115 27.0109 17.6485 26.9983C18.8353 26.9634 20.0241 26.9869 21.2117 26.9853C21.3598 26.9853 21.51 26.9865 21.656 26.9651C21.9067 26.9277 22.0365 26.7876 22.0395 26.5387C22.0595 24.7517 22.6951 23.1438 23.5025 21.5855C23.6446 21.3113 23.7978 21.0431 23.9471 20.7731C23.9811 20.7117 24.0167 20.6512 24.0583 20.5944C24.2514 20.3304 24.3943 20.3186 24.5776 20.5881C24.8967 21.0574 25.279 21.4678 25.7067 21.8365C26.4051 22.4386 27.1158 23.0269 27.8154 23.6273C28.0233 23.8056 28.2223 23.9969 28.4086 24.1975C28.748 24.5629 28.7298 24.8774 28.3683 25.2197C28.1633 25.4139 27.9062 25.543 27.7102 25.7482C27.4196 26.0522 27.4361 26.5484 27.7467 26.8221C27.8748 26.9348 28.0237 26.9853 28.1935 26.9853C29.6361 26.984 31.0782 26.9827 32.5208 26.9827C32.814 26.9827 33.0491 26.8671 33.2557 26.664C33.9019 26.0283 34.1387 25.2676 33.9214 24.3964C33.6486 23.3027 33.3851 22.2049 33.0113 21.1389C32.7873 20.4998 32.3609 20.002 31.7215 19.7652C30.6862 19.3822 30.2551 18.5904 30.2148 17.5888C30.163 16.3089 29.7129 15.1728 29.1324 14.0648C28.5376 12.9295 27.84 11.8607 27.0105 10.8793C26.3631 10.1132 25.6562 9.40928 24.7741 8.90513C23.6887 8.28492 22.5419 8.14659 21.3407 8.50651C20.8065 8.66672 20.2779 8.84416 19.7458 9.01067C18.6363 9.3584 17.6875 9.0771 16.8682 8.28703C16.3328 7.77068 15.9123 7.16393 15.4753 6.56937C15.2423 6.25233 15.0098 5.93487 14.7298 5.65483C14.2703 5.19525 13.675 5.0136 13.0683 4.86938C12.4569 4.72431 11.8387 4.60868 11.2222 4.48422C10.9718 4.43376 10.7321 4.35051 10.4903 4.27104C10.2565 4.19451 10.1436 3.98848 10.007 3.81482C9.30225 2.92046 8.6552 1.98238 7.91269 1.11703C7.63053 0.788219 7.37256 0.427449 6.96821 0.223937C6.34153 -0.0914213 5.69236 -0.0249857 5.04235 0.126807C4.46149 0.262621 3.91755 0.49893 3.37742 0.74533C3.0469 0.896282 2.86106 1.15614 2.867 1.50387C2.88269 2.44658 2.48895 3.19251 1.81348 3.82239C1.60175 4.02001 1.42398 4.24917 1.32596 4.52711C1.17619 4.95137 1.27335 5.28187 1.64164 5.54004C1.80202 5.65231 1.90343 5.78014 1.85463 5.97734C1.79693 6.20986 1.7842 6.46846 1.48083 6.55718C1.07139 6.67659 0.936463 6.99994 0.920765 7.383C0.913552 7.56338 0.854151 7.70803 0.735349 7.83627C0.469317 8.12304 0.335665 8.45984 0.354334 8.85089C0.359849 8.9661 0.312753 9.04641 0.229591 9.12504C-0.0249843 9.36597 -0.0652921 9.62835 0.0959392 9.94203C0.21559 10.175 0.378094 10.3802 0.560116 10.566C1.03702 11.0525 1.4698 11.5827 2.01756 11.9998C2.36888 12.2673 2.75116 12.3829 3.18988 12.2883C3.21746 12.2824 3.24547 12.279 3.27389 12.2757C3.78347 12.2198 3.92009 12.3371 3.91585 12.8383C3.90779 13.7701 3.85305 14.6989 3.74783 15.6248C3.69479 16.0932 3.44149 16.4754 3.24037 16.8829C2.80802 17.7596 2.56023 18.6926 2.43294 19.6563C2.26111 20.9543 2.10284 22.2536 1.93482 23.5521C1.79566 24.6293 2.08587 25.5901 2.72189 26.4605C2.97562 26.8074 3.27389 27.024 3.74995 26.9979C4.41948 26.9609 5.09284 26.9886 5.76449 26.9882L5.76322 26.9886Z" fill="white"/>
</svg>
