<svg width="32" height="30" viewBox="0 0 32 30" fill="none" xmlns="http://www.w3.org/2000/svg">
<g id="Group 45">
<path id="Vector" d="M16.0151 29.9978C11.1825 29.9978 6.35079 29.9978 1.51817 29.9978C0.736261 29.9978 0.323389 29.7441 0.0709328 29.1348C-0.0912354 28.7426 0.0656733 28.3512 0.136677 27.9903C0.450494 26.3996 0.943135 24.8646 1.70839 23.4176C2.55342 21.8199 3.61847 20.3974 4.92634 19.1483C5.94756 18.172 7.08274 17.3544 8.30995 16.6545C8.51946 16.5351 8.6527 16.5586 8.80523 16.7111C9.71424 17.6194 10.7846 18.3045 11.9592 18.7944C12.9225 19.1962 13.935 19.4525 14.9939 19.5553C17.8805 19.8369 20.3998 18.9626 22.6807 17.2664C22.7394 17.2228 22.7964 17.1766 22.8481 17.1269C23.5178 16.4889 23.5091 16.5037 24.3462 17.0031C26.4895 18.2801 28.2277 19.9685 29.5917 22.0439C30.761 23.8221 31.4825 25.7789 31.905 27.8509C31.9681 28.1586 31.9935 28.4767 31.9997 28.7914C32.0137 29.4695 31.5894 29.9245 30.9039 29.989C30.7304 30.0056 30.5542 29.9986 30.3789 29.9986C25.5901 29.9986 20.8022 29.9986 16.0134 29.9986L16.0151 29.9978Z" fill="white"/>
<path id="Vector_2" d="M16.0021 18.2059C10.803 18.1807 6.85138 13.8041 6.87856 9.03353C6.90661 4.18801 11.0493 -0.417808 16.7401 0.0302219C21.635 0.415493 25.2465 4.2499 25.1922 9.19304C25.1326 14.5668 20.7531 18.1929 16.0012 18.2059H16.0021Z" fill="white"/>
</g>
</svg>
