<svg width="30" height="30" viewBox="0 0 30 30" fill="none" xmlns="http://www.w3.org/2000/svg">
<path id="Vector" d="M27.8479 14.0653L29.9328 6.32351C30.1143 5.65006 29.9222 4.93085 29.429 4.43762L25.5624 0.571036C25.0691 0.0778032 24.3499 -0.114259 23.6765 0.0671785L15.9347 2.15208C15.605 2.24075 15.3046 2.41483 15.0631 2.65593L0.570977 17.1485C-0.190326 17.9098 -0.190326 19.1443 0.570977 19.9056L10.0944 29.429C10.8557 30.1903 12.0902 30.1903 12.8515 29.429L27.3437 14.9369C27.5848 14.6958 27.7592 14.395 27.8479 14.0653ZM23.6961 6.27529C22.8662 5.44533 22.8662 4.10008 23.6961 3.27013C24.5261 2.44017 25.8713 2.44017 26.7013 3.27013C27.5312 4.10008 27.5312 5.44533 26.7013 6.27529C25.8713 7.10524 24.5261 7.10524 23.6961 6.27529Z" fill="white"/>
</svg>
