<svg width="30" height="30" viewBox="0 0 30 30" fill="none" xmlns="http://www.w3.org/2000/svg">
<path id="Vector" d="M28.7994 0.0576449C28.6896 0.0988832 28.5826 0.147082 28.4791 0.201942L0.971066 12.8451C0.392775 13.1099 -0.00727084 13.5071 0.000100188 14.1849C0.00747122 14.8084 0.351229 15.2188 0.906737 15.4584C3.38474 16.5263 5.86565 17.5895 8.34947 18.6481C8.56055 18.7726 8.73008 18.7017 8.89961 18.5541C10.4408 17.2204 11.9619 15.8688 13.4904 14.5238C14.5626 13.5785 15.6287 12.6227 16.7069 11.6835C18.1415 10.4345 19.5601 9.16822 20.9908 7.91588C22.0917 6.95081 23.1961 5.98971 24.2843 5.01008C25.3048 4.09134 26.371 3.22291 27.3111 2.33463C26.7422 2.95682 26.1766 3.65117 25.605 4.34022C23.7395 6.59073 21.8632 8.83196 19.9763 11.0639C17.5854 13.9049 15.2186 16.763 12.8063 19.5914C12.6273 19.8012 12.362 19.9984 12.3761 20.3195C12.0222 21.8068 11.7448 23.4424 11.387 24.9198C10.9778 26.6116 10.569 28.3039 10.1607 29.9966C10.3993 30.0304 10.3993 29.802 10.473 29.6882C12.0776 27.2139 13.676 24.7355 15.2682 22.2529C15.3747 22.0868 15.4464 21.8875 15.6542 21.8041C16.6459 22.2313 17.6379 22.658 18.63 23.0843C21.2336 24.2056 23.8369 25.3266 26.44 26.4475C27.494 26.8995 28.4717 26.3813 28.5695 25.3103C28.6305 24.6444 28.6453 23.9739 28.6841 23.306C28.7945 21.4024 28.9062 19.4985 29.0192 17.5944C29.1429 15.5067 29.2687 13.4192 29.3964 11.332C29.5164 9.36149 29.6417 7.39164 29.7576 5.42113C29.8461 3.91792 29.9412 2.41472 29.9988 0.910189C30.029 0.225771 29.4621 -0.15152 28.7994 0.0576449Z" fill="#FEFEFE"/>
</svg>
