<svg width="21" height="30" viewBox="0 0 21 30" fill="none" xmlns="http://www.w3.org/2000/svg">
<path id="Vector" d="M18.2714 2.36125H15.4489V0.847629C15.4489 0.379617 15.0906 0 14.6489 0H6.35114C5.90943 0 5.55114 0.379617 5.55114 0.847629V2.36125H2.72857C1.22171 2.36125 0 3.6557 0 5.25227V27.109C0 28.7055 1.22171 30 2.72857 30H18.2714C19.7783 30 21 28.7055 21 27.109V5.25227C21 3.6557 19.7783 2.36125 18.2714 2.36125ZM14.0523 21.6575C14.0523 21.9799 13.8057 22.2412 13.5014 22.2412H3.32943C3.02514 22.2412 2.77857 21.9799 2.77857 21.6575V20.6767C2.77857 20.3543 3.02514 20.0927 3.32943 20.0927H13.5014C13.8057 20.0927 14.0523 20.3543 14.0523 20.6767V21.6575ZM14.0726 15.4804C14.0726 15.8028 13.826 16.0644 13.5217 16.0644H3.34971C3.04543 16.0644 2.79886 15.8028 2.79886 15.4804V14.4996C2.79886 14.1772 3.04543 13.9156 3.34971 13.9156H13.5217C13.826 13.9156 14.0726 14.1772 14.0726 14.4996V15.4804ZM14.0929 9.30333C14.0929 9.62573 13.8463 9.88729 13.5417 9.88729H3.37C3.06571 9.88729 2.81914 9.62573 2.81914 9.30333V8.3225C2.81914 8.0001 3.06571 7.73855 3.37 7.73855H13.5417C13.8463 7.73855 14.0929 8.0001 14.0929 8.3225V9.30333ZM18.2266 21.6575C18.2266 21.9799 17.98 22.2412 17.6757 22.2412H16.2726C15.968 22.2412 15.7214 21.9799 15.7214 21.6575V20.6767C15.7214 20.3543 15.968 20.0927 16.2726 20.0927H17.6757C17.98 20.0927 18.2266 20.3543 18.2266 20.6767V21.6575ZM18.2311 15.4804C18.2311 15.8028 17.9846 16.0644 17.6803 16.0644H16.2769C15.9726 16.0644 15.726 15.8028 15.726 15.4804V14.4996C15.726 14.1772 15.9726 13.9156 16.2769 13.9156H17.6803C17.9846 13.9156 18.2311 14.1772 18.2311 14.4996V15.4804ZM18.2357 9.30333C18.2357 9.62573 17.9891 9.88729 17.6846 9.88729H16.2814C15.9771 9.88729 15.7306 9.62573 15.7306 9.30333V8.3225C15.7306 8.0001 15.9771 7.73855 16.2814 7.73855H17.6846C17.9891 7.73855 18.2357 8.0001 18.2357 8.3225V9.30333Z" fill="white"/>
</svg>
