<svg width="30" height="30" viewBox="0 0 30 30" fill="none" xmlns="http://www.w3.org/2000/svg">
<path id="Vector" d="M0 0.00565056C2.08972 0.00565056 4.13394 0.0048415 6.17777 0.00565056C6.98675 0.0060551 7.7961 0.0165729 8.60507 0.00726869C8.75914 0.00565056 8.83522 0.076848 8.91436 0.190117C9.68128 1.29125 10.4501 2.39036 11.2182 3.49028C13.0953 6.17717 14.9729 8.86407 16.8504 11.551C16.8917 11.61 16.9356 11.6667 16.9957 11.7472C17.2006 11.5158 17.399 11.2933 17.5955 11.0692C19.0342 9.43001 20.4716 7.79004 21.9107 6.15169C23.545 4.29125 25.1806 2.43243 26.8157 0.572803C26.8895 0.489065 26.9713 0.41099 27.0321 0.317544C27.1957 0.0663302 27.4137 -0.00608083 27.6981 0.000391664C28.4478 0.018191 29.1979 0.00645963 30 0.00645963C26.0526 4.43607 22.1416 8.82483 18.2145 13.2322C22.1301 18.8018 26.0423 24.3665 29.9782 29.9648C29.8119 29.9761 29.672 29.9939 29.5321 29.9939C26.9262 29.9955 24.32 29.9911 21.7142 30C21.3655 30.0012 21.1311 29.8948 20.9094 29.5821C19.3775 27.4247 17.823 25.2852 16.2742 23.1412C15.2665 21.7459 14.2564 20.3531 13.2326 18.9389C12.9921 19.2063 12.7562 19.4668 12.5222 19.7294C10.9269 21.5178 9.33185 23.3066 7.73684 25.0955C6.32955 26.6735 4.92379 28.2528 3.51306 29.8277C3.44501 29.9037 3.3372 29.9838 3.24659 29.9854C2.49038 29.998 1.73378 29.9927 0.916401 29.9927C4.71084 25.7152 8.47088 21.4765 12.2451 17.2225C8.17 11.4931 4.09915 5.769 0 0.00565056ZM26.1348 27.8321C26.0886 27.7674 26.0706 27.7423 26.0522 27.7168C24.2665 25.2144 22.4815 22.7112 20.6945 20.2099C18.6469 17.3438 16.5965 14.4802 14.5485 11.6145C12.3238 8.50161 10.0995 5.38834 7.87715 2.27385C7.8156 2.18769 7.7571 2.1436 7.64853 2.1436C6.48286 2.14481 5.31757 2.13874 4.15191 2.13591C4.06168 2.13591 3.97184 2.144 3.856 2.14966C3.89614 2.21398 3.9122 2.2423 3.93093 2.269C5.33554 4.23583 6.74054 6.20306 8.14553 8.16949C10.8255 11.9199 13.5055 15.6707 16.1855 19.4207C18.1514 22.1715 20.1188 24.9215 22.0816 27.6747C22.1657 27.7925 22.2532 27.8325 22.3851 27.8317C23.1497 27.8281 23.914 27.8309 24.6786 27.8317C25.1496 27.8317 25.621 27.8321 26.1348 27.8321Z" fill="white"/>
</svg>
