<svg width="30" height="23" viewBox="0 0 30 23" fill="none" xmlns="http://www.w3.org/2000/svg">
<path id="Vector" d="M29.9617 9.39855C29.9038 7.6707 29.8032 5.9519 29.517 4.24956C29.1685 2.18191 28.0898 0.952665 26.2623 0.57007C25.5247 0.416209 24.7758 0.352855 24.0269 0.291969C21.4677 0.0821586 18.9033 0.0212725 16.3389 0.00563962C12.3578 -0.0182211 8.38196 0.0163358 4.4174 0.455703C2.06105 0.716525 0.840431 1.96634 0.443074 4.5252C0.198951 6.08849 0.108062 7.67481 0.0487215 9.26361C-0.0677064 12.3902 0.00740835 15.5102 0.461853 18.6055C0.768321 20.6904 1.83495 21.9937 3.54156 22.3804C4.15495 22.5137 4.77536 22.6046 5.39915 22.6528C8.59378 22.9334 11.7959 22.9877 14.9996 23C15.2497 23 15.4998 23 15.7507 23C19.1309 22.9523 22.5073 22.9366 25.8679 22.4989C27.7405 22.2562 28.9965 21.1158 29.4149 19.2596C29.5262 18.7541 29.6109 18.2421 29.6687 17.726C29.988 14.9598 30.0541 12.1812 29.9617 9.39855ZM12.0093 16.407V6.59121L19.7701 11.4983L12.0093 16.407Z" fill="white"/>
</svg>
